<?xml version="1.0" encoding="UTF-8"?>
<svg width="22px" height="22px" viewBox="0 0 22 22" version="1.1" xmlns="http://www.w3.org/2000/svg" xmlns:xlink="http://www.w3.org/1999/xlink">
    <title>weixin</title>
    <g id="weixin" stroke="none" stroke-width="1" fill="none" fill-rule="evenodd">
        <g id="编组">
            <rect id="矩形" x="0" y="0" width="22" height="22"></rect>
            <path d="M16.5,13.511912 C17.0522941,13.511912 17.5,13.0642061 17.5,12.511912 C17.5,11.9596473 17.0522941,11.511912 16.5,11.511912 C15.9477059,11.511912 15.5,11.9596473 15.5,12.511912 C15.5,13.0642061 15.9477059,13.511912 16.5,13.511912 L16.5,13.511912 Z M13.5,13.511912 C14.0522941,13.511912 14.5,13.0642061 14.5,12.511912 C14.5,11.9596473 14.0522941,11.511912 13.5,11.511912 C12.9477059,11.511912 12.5,11.9596473 12.5,12.511912 C12.5,13.0642061 12.9477059,13.511912 13.5,13.511912 L13.5,13.511912 Z M11,8 C11.552275,8 12,7.5523 12,7 C12,6.447725 11.552275,6 11,6 C10.4477,6 10,6.447725 10,7 C10,7.5523 10.4477,8 11,8 L11,8 Z M7,8 C7.552275,8 8,7.5523 8,7 C8,6.447725 7.552275,6 7,6 C6.447725,6 6,6.447725 6,7 C6,7.5523 6.447725,8 7,8 L7,8 Z M17.181491,18.730146 C17.0882216,18.6744508 16.9768603,18.6617496 16.8737106,18.6938989 C16.2889102,18.8761761 15.6579361,18.9755671 15,18.9755671 C11.9624411,18.9755671 9.5,16.8570668 9.5,14.2437396 C9.5,11.630435 11.9624411,9.511912 15,9.511912 C18.0375589,9.511912 20.5,11.630435 20.5,14.2437396 C20.5,15.6872187 19.7487285,16.9797094 18.5642635,17.8476262 C18.4692375,17.9172679 18.4260938,18.0403859 18.4556467,18.1566666 L18.7145529,19.175119 C18.7920798,19.4800388 18.6390459,19.6002816 18.374497,19.4423653 L17.181491,18.730146 L17.181491,18.730146 Z M6.3355784,15.0118302 C7.02421998,15.2255618 7.76626517,15.3419698 8.53966164,15.3419698 C8.65765799,15.3419698 8.77489392,15.3392758 8.89134769,15.3339104 C8.74714924,14.8900342 8.67002034,14.4219798 8.67002034,13.9383727 C8.67002034,11.0876897 11.3498911,8.77675773 14.6556575,8.77675773 C14.7712422,8.77675773 14.8860448,8.77958756 15,8.78515667 C14.5095688,6.07392785 11.8039088,4 8.53966164,4 C4.92789994,4 2,6.53899388 2,9.67098488 C2,11.3927004 2.88478797,12.9352083 4.28155976,13.9752737 C4.41306996,14.0731859 4.47329569,14.2451945 4.43145054,14.4078986 L4.12406472,15.6030162 C4.03129277,15.963718 4.20860234,16.1048021 4.51809563,15.9164937 L5.91843055,15.0645556 C6.04457432,14.9878105 6.19557315,14.9683639 6.3355784,15.0118302 Z" id="WeChat" fill="#FFFFFF"></path>
        </g>
    </g>
</svg>