<?xml version="1.0" encoding="UTF-8"?>
<svg width="96px" height="26px" viewBox="0 0 96 26" version="1.1" xmlns="http://www.w3.org/2000/svg" xmlns:xlink="http://www.w3.org/1999/xlink">
    <title>编组 2</title>
    <defs>
        <linearGradient x1="50%" y1="0%" x2="50%" y2="100%" id="linearGradient-1">
            <stop stop-color="#FC8500" offset="0.0369510135%"></stop>
            <stop stop-color="#FF9400" offset="48.8017314%"></stop>
            <stop stop-color="#FFBF41" offset="100%"></stop>
        </linearGradient>
    </defs>
    <g id="微信登陆邮箱绑定" stroke="none" stroke-width="1" fill="none" fill-rule="evenodd">
        <g id="绑定邮箱" transform="translate(-21.000000, -23.000000)">
            <g id="编组-2" transform="translate(21.000000, 23.000000)">
                <g id="编组" transform="translate(44.000000, 0.000000)" fill="#000000">
                    <rect id="矩形" x="6.6016615e-05" y="0" width="10.1463415" height="2.52631579"></rect>
                    <rect id="矩形" x="6.6016615e-05" y="3.78947368" width="20.2926829" height="2.52631579"></rect>
                    <rect id="矩形" x="25.3658537" y="3.78947368" width="10.1463415" height="2.52631579"></rect>
                    <rect id="矩形" x="25.3658537" y="15.1578947" width="10.1463415" height="2.52631579"></rect>
                    <rect id="矩形" x="6.6016615e-05" y="7.57894737" width="20.2926829" height="2.52631579"></rect>
                    <rect id="矩形" x="36.7804878" y="7.57894737" width="15.2195122" height="2.52631579"></rect>
                    <rect id="矩形" x="6.6016615e-05" y="11.3684211" width="20.2926829" height="2.52631579"></rect>
                    <rect id="矩形" x="6.6016615e-05" y="15.1578947" width="20.2926829" height="2.52631579"></rect>
                    <rect id="矩形" x="8.8781148" y="3.78947368" width="2.53658537" height="13.8947368"></rect>
                    <rect id="矩形" x="43.1219512" y="0" width="2.53658537" height="24"></rect>
                    <rect id="矩形" x="25.3658537" y="3.78947368" width="2.53658537" height="13.8947368"></rect>
                    <rect id="矩形" x="32.9756098" y="3.78947368" width="2.53658537" height="13.8947368"></rect>
                    <path d="M11.4146341,12.6315789 C11.4146341,18.9095149 6.30521843,23.9989143 0.00201706518,23.9999998 L0.00176640615,21.4735789 L0.261766556,21.4699144 C5.04390196,21.3320056 8.87804878,17.427736 8.87804878,12.6315789 L11.4146341,12.6315789 L11.4146341,12.6315789 Z" id="形状结合"></path>
                    <path d="M20.2909165,12.6315789 C20.2909165,18.9095149 15.1815008,23.9989143 8.87829944,23.9999998 L8.87804878,21.4735789 L9.13804893,21.4699144 C13.9201843,21.3320056 17.7543312,17.427736 17.7543312,12.6315789 L20.2909165,12.6315789 L20.2909165,12.6315789 Z" id="形状结合" transform="translate(14.584483, 18.315789) scale(-1, 1) translate(-14.584483, -18.315789) "></path>
                    <rect id="矩形" x="13.9512855" y="0" width="6.34146341" height="2.52631579"></rect>
                </g>
                <g id="矩形" fill="url(#linearGradient-1)">
                    <path d="M12.0942326,1.11386125 C12.1005441,1.12267573 12.1062314,1.12996888 12.1112947,1.13574068 C12.5983446,1.69094379 13.3206174,2.04262079 14.1267885,2.04262079 C14.9723966,2.04262079 15.7256973,1.65569486 16.2120538,1.05281699 C16.2183473,1.04501569 16.2258957,1.03417821 16.234699,1.02030456 L16.2346837,1.02029487 C16.6031373,0.439626088 17.3063027,0.165917462 17.9703654,0.344677056 C17.9703654,0.344677056 17.9703654,0.344677056 17.9703654,0.344677056 C21.9064018,1.40422194 25.20234,3.97695522 27.1647677,7.38387632 C27.1979443,7.44147341 27.2665323,7.57491604 27.3705316,7.78420421 L27.3705461,7.78419701 C27.7218814,8.49122406 27.466993,9.34956113 26.7867163,9.75024468 C26.7867163,9.75024468 26.7867163,9.75024468 26.7867163,9.75024468 C21.1779013,13.0538412 16.8995849,18.3010022 14.9232088,24.5396298 C14.9148055,24.5661555 14.9055957,24.5940611 14.8955792,24.6233468 L14.8955665,24.6233424 C14.7806084,24.9594508 14.4149468,25.1387285 14.0788384,25.0237704 C13.8851542,24.9575252 13.7345684,24.8030424 13.6732921,24.6077294 C13.6732921,24.6077294 13.6732921,24.6077294 13.6732921,24.6077294 C11.6613923,18.1949594 7.21924397,12.8237907 1.39895123,9.52410342 C1.38663044,9.51711842 1.37053949,9.50818814 1.35067838,9.49731258 L1.35066464,9.49733768 C0.587195575,9.07927669 0.307187012,8.12145733 0.725248006,7.35798827 C0.731914198,7.34581437 0.738740913,7.33372906 0.745726363,7.32173551 C0.745726363,7.32173551 0.745726363,7.32173551 0.745726363,7.32173551 C2.716169,3.93861619 6.00550687,1.38706086 9.92843281,0.337889158 C9.92843281,0.337889158 9.92843281,0.337889158 9.92843281,0.337889158 C10.7415125,0.120434077 11.6042505,0.429534741 12.0942439,1.11385318 Z" id="路径"></path>
                </g>
            </g>
        </g>
    </g>
</svg>